<svg width="36" height="36" viewBox="0 0 36 36" fill="none" xmlns="http://www.w3.org/2000/svg">
<path d="M18 0C8.061 0 0 8.26325 0 18.455C0 26.6091 5.157 33.5267 12.3105 35.9673C13.209 36.1381 13.5 35.5659 13.5 35.08V31.6443C8.493 32.7608 7.4505 29.4666 7.4505 29.4666C6.6315 27.3335 5.451 26.766 5.451 26.766C3.8175 25.6202 5.5755 25.6448 5.5755 25.6448C7.383 25.774 8.334 27.5472 8.334 27.5472C9.939 30.3678 12.5445 29.5527 13.572 29.0805C13.7325 27.8887 14.199 27.0736 14.715 26.6137C10.7175 26.1446 6.5145 24.5621 6.5145 17.4923C6.5145 15.4761 7.218 13.8305 8.3685 12.5387C8.1825 12.0727 7.566 10.1949 8.544 7.65423C8.544 7.65423 10.056 7.15902 13.4955 9.54587C14.931 9.13679 16.47 8.93224 18 8.92455C19.53 8.93224 21.0705 9.13679 22.509 9.54587C25.9455 7.15902 27.4545 7.65423 27.4545 7.65423C28.434 10.1964 27.8175 12.0742 27.6315 12.5387C28.7865 13.8305 29.484 15.4776 29.484 17.4923C29.484 24.5806 25.2735 26.1416 21.2655 26.5983C21.9105 27.1704 22.5 28.2931 22.5 30.0156V35.08C22.5 35.5706 22.788 36.1473 23.7015 35.9658C30.849 33.5221 36 26.606 36 18.455C36 8.26325 27.9405 0 18 0Z" fill="#635CDD"/>
</svg>
