<svg width="34" height="34" viewBox="0 0 34 34" fill="none" xmlns="http://www.w3.org/2000/svg">
<path fill-rule="evenodd" clip-rule="evenodd" d="M16.9924 3.06257C21.5333 3.06257 22.066 3.08335 23.8604 3.16459C25.5208 3.24016 26.418 3.516 27.0187 3.75028C27.8139 4.06201 28.3806 4.42665 28.9737 5.01989C29.5687 5.61314 29.9389 6.17993 30.243 6.97722C30.4716 7.57802 30.7549 8.47544 30.8286 10.1343C30.9098 11.9291 30.9306 12.4619 30.9306 17.0038C30.9306 21.5457 30.9117 22.0785 30.8286 23.8733C30.7549 25.5321 30.4791 26.4295 30.243 27.0303C29.9712 27.7694 29.5375 28.4382 28.9737 28.9877C28.4264 29.5529 27.7579 29.9863 27.0187 30.2554C26.418 30.4859 25.5208 30.7693 23.8604 30.843C22.066 30.9242 21.5333 30.945 16.9924 30.945C12.4534 30.945 11.9208 30.9242 10.1263 30.843C8.466 30.7674 7.56878 30.4916 6.96811 30.2573C6.22996 29.9852 5.56199 29.5514 5.01311 28.9877C4.44707 28.4399 4.01301 27.7706 3.74378 27.0303C3.51522 26.4295 3.23189 25.5321 3.15822 23.8733C3.077 22.0785 3.05622 21.5457 3.05622 17.0038C3.05622 12.4619 3.07511 11.9291 3.15633 10.1343C3.23189 8.47544 3.50767 7.57802 3.74378 6.97722C4.05356 6.17993 4.41811 5.61314 5.01311 5.01989C5.60622 4.42665 6.17289 4.05635 6.96811 3.75217C7.56878 3.52167 8.466 3.23828 10.1263 3.16459C11.9208 3.07768 12.4534 3.06257 16.9924 3.06257ZM16.9924 0C12.3798 0 11.798 0.0188929 9.98467 0.102022C8.177 0.181373 6.94167 0.472327 5.86311 0.889864C4.72844 1.31669 3.70127 1.98743 2.85411 2.85475C1.90967 3.7994 1.32978 4.74972 0.889667 5.86441C0.472222 6.94321 0.181333 8.17882 0.102 9.99255C0.0188887 11.8006 0 12.3825 0 16.9962C0 21.6118 0.0188887 22.1918 0.102 24.0074C0.181333 25.8155 0.472222 27.0492 0.889667 28.1375C1.32222 29.2578 1.90967 30.2025 2.85411 31.1471C3.79856 32.0918 4.74867 32.6718 5.86311 33.1101C6.94167 33.5277 8.177 33.8186 9.99033 33.8999C11.8056 33.9811 12.3798 34 17 34C21.6202 34 22.1944 33.9811 24.0078 33.8999C25.8173 33.8186 27.0508 33.5277 28.1369 33.1101C29.2716 32.6833 30.2987 32.0126 31.1459 31.1453C32.0903 30.2006 32.6702 29.2503 33.1103 28.1375C33.5278 27.0568 33.8187 25.8231 33.898 24.0074C33.9792 22.1937 34 21.6194 34 16.9981C34 12.375 33.9811 11.8025 33.898 9.98689C33.8187 8.17882 33.5278 6.94321 33.1103 5.85686C32.6835 4.72196 32.013 3.69457 31.1459 2.84719C30.2014 1.90253 29.2513 1.32252 28.1369 0.882307C27.0583 0.466659 25.823 0.175706 24.0097 0.0944653C22.1869 0.018893 21.607 0 16.9924 0ZM16.9924 8.26573C14.6995 8.29946 12.5118 9.23422 10.9023 10.868C9.29269 12.5018 8.39041 14.7034 8.39041 16.9972C8.39041 19.2909 9.29269 21.4925 10.9023 23.1263C12.5118 24.7601 14.6995 25.6949 16.9924 25.7286C19.3074 25.7271 21.5272 24.8066 23.1641 23.1693C24.8011 21.532 25.7214 19.3117 25.7229 16.9962C25.7214 14.6809 24.801 12.4608 23.164 10.8238C21.527 9.1868 19.3073 8.26673 16.9924 8.26573ZM16.9924 22.6641C16.2397 22.6779 15.4918 22.5415 14.7923 22.2629C14.0929 21.9842 13.456 21.569 12.9188 21.0414C12.3816 20.5138 11.9549 19.8845 11.6636 19.1901C11.3723 18.4957 11.2223 17.7502 11.2223 16.9972C11.2223 16.2441 11.3723 15.4987 11.6636 14.8043C11.9549 14.1099 12.3816 13.4805 12.9188 12.9529C13.456 12.4253 14.0929 12.0101 14.7923 11.7315C15.4918 11.4529 16.2397 11.3164 16.9924 11.3302C18.4953 11.3302 19.9367 11.9273 20.9994 12.9903C22.0621 14.0532 22.6591 15.4949 22.6591 16.9981C22.6591 18.5013 22.0621 19.943 20.9994 21.0059C19.9367 22.0689 18.4953 22.666 16.9924 22.666V22.6641ZM28.1048 7.92187C28.1048 8.18958 28.0521 8.45467 27.9496 8.702C27.8472 8.94933 27.6971 9.17406 27.5078 9.36335C27.3186 9.55265 27.0939 9.70281 26.8466 9.80526C26.5993 9.90771 26.3343 9.96044 26.0667 9.96044C25.799 9.96044 25.534 9.90771 25.2867 9.80526C25.0394 9.70281 24.8148 9.55265 24.6255 9.36335C24.4362 9.17406 24.2861 8.94933 24.1837 8.702C24.0813 8.45467 24.0286 8.18958 24.0286 7.92187C24.0286 7.38121 24.2433 6.86269 24.6255 6.48039C25.0077 6.09808 25.5261 5.88331 26.0667 5.88331C26.6072 5.88331 27.1256 6.09808 27.5078 6.48039C27.89 6.86269 28.1048 7.38121 28.1048 7.92187Z" fill="#635CDD"/>
</svg>
