<svg width="32" height="30" viewBox="0 0 32 30" fill="none" xmlns="http://www.w3.org/2000/svg">
<path d="M0 3.48485C0 2.47473 0.360371 1.64139 1.08108 0.984848C1.80179 0.328273 2.73875 0 3.89189 0C5.02446 0 5.94079 0.323212 6.64093 0.969697C7.36164 1.63636 7.72201 2.50503 7.72201 3.57576C7.72201 4.54545 7.37195 5.35352 6.67181 6C5.9511 6.66667 5.00386 7 3.83012 7H3.79923C2.66666 7 1.75033 6.66667 1.05019 6C0.350054 5.33333 0 4.49494 0 3.48485ZM0.401544 30V9.75758H7.25869V30H0.401544ZM11.0579 30H17.9151V18.697C17.9151 17.9899 17.9974 17.4444 18.1622 17.0606C18.4504 16.3737 18.888 15.7929 19.4749 15.3182C20.0618 14.8434 20.7979 14.6061 21.6834 14.6061C23.9897 14.6061 25.1429 16.1313 25.1429 19.1818V30H32V18.3939C32 15.404 31.2793 13.1364 29.8378 11.5909C28.3964 10.0455 26.4916 9.27273 24.1236 9.27273C21.4672 9.27273 19.3977 10.3939 17.9151 12.6364V12.697H17.8842L17.9151 12.6364V9.75758H11.0579C11.0991 10.404 11.1197 12.4141 11.1197 15.7879C11.1197 19.1616 11.0991 23.899 11.0579 30Z" fill="#635CDD"/>
</svg>
