<svg width="28" height="33" viewBox="0 0 28 33" fill="none" xmlns="http://www.w3.org/2000/svg">
<path d="M23.0226 25.9036C12.8022 24.628 8.427 16.7095 7.35116 9.4222C7.07086 7.52355 5.37532 6.44761 4.13473 7.91198C0.629705 12.0492 -2.67482 21.066 3.28505 28.0772C8.92323 34.71 19.7821 34.045 24.9283 29.6066C26.5295 28.2256 25.1208 26.1654 23.0226 25.9036Z" fill="#F9D277"/>
<path d="M14.2027 5.53262C14.3524 5.07196 15.0041 5.07196 15.1538 5.53262L15.5709 6.8165C15.6379 7.02251 15.8298 7.16199 16.0465 7.16199H17.3964C17.8808 7.16199 18.0822 7.7818 17.6903 8.0665L16.5982 8.85999C16.4229 8.98731 16.3496 9.21299 16.4165 9.419L16.8337 10.7029C16.9834 11.1635 16.4561 11.5466 16.0643 11.2619L14.9721 10.4684C14.7969 10.3411 14.5596 10.3411 14.3843 10.4684L13.2922 11.2619C12.9004 11.5466 12.3731 11.1635 12.5228 10.7029L12.9399 9.419C13.0069 9.21299 12.9336 8.98731 12.7583 8.85999L11.6662 8.0665C11.2743 7.7818 11.4757 7.16199 11.9601 7.16199H13.31C13.5266 7.16199 13.7186 7.02251 13.7855 6.8165L14.2027 5.53262Z" fill="#F9D277"/>
<path d="M21.2157 1.17082C21.3355 0.802297 21.8568 0.802296 21.9766 1.17082L22.2372 1.97299C22.2908 2.1378 22.4444 2.24938 22.6176 2.24938H23.4611C23.8486 2.24938 24.0097 2.74523 23.6962 2.97299L23.0138 3.46876C22.8736 3.57061 22.815 3.75116 22.8685 3.91597L23.1292 4.71814C23.2489 5.08666 22.8271 5.39311 22.5136 5.16535L21.8313 4.66959C21.6911 4.56773 21.5012 4.56773 21.361 4.66959L20.6787 5.16535C20.3652 5.39311 19.9434 5.08666 20.0631 4.71814L20.3238 3.91597C20.3773 3.75116 20.3187 3.57061 20.1785 3.46876L19.4961 2.97299C19.1826 2.74523 19.3437 2.24938 19.7312 2.24938H20.5747C20.748 2.24938 20.9015 2.1378 20.9551 1.97299L21.2157 1.17082Z" fill="#F9D277"/>
<path d="M20.476 13.5891C20.7006 12.8981 21.6781 12.8981 21.9026 13.5891L22.2086 14.5308C22.309 14.8398 22.597 15.049 22.9219 15.049H23.9121C24.6386 15.049 24.9407 15.9788 24.3529 16.4058L23.5519 16.9878C23.289 17.1788 23.179 17.5173 23.2794 17.8263L23.5854 18.7681C23.8099 19.4591 23.019 20.0336 22.4313 19.6066L21.6302 19.0246C21.3673 18.8336 21.0114 18.8336 20.7485 19.0246L19.9474 19.6066C19.3596 20.0336 18.5688 19.4591 18.7933 18.7681L19.0993 17.8263C19.1997 17.5173 19.0897 17.1788 18.8268 16.9878L18.0257 16.4058C17.438 15.9788 17.74 15.049 18.4666 15.049H19.4568C19.7817 15.049 20.0697 14.8398 20.1701 14.5308L20.476 13.5891Z" fill="#F9D277"/>
</svg>
