<svg width="30" height="34" viewBox="0 0 30 34" fill="none" xmlns="http://www.w3.org/2000/svg">
<path fill-rule="evenodd" clip-rule="evenodd" d="M27.3595 25.3441C27.4976 23.8201 27.5 21.8499 27.5 19V15C27.5 12.1501 27.4976 10.1799 27.3595 8.65594C27.2245 7.16636 26.9758 6.35031 26.6292 5.75C26.0587 4.76188 25.2381 3.94133 24.25 3.37083C23.6497 3.02424 22.8336 2.77552 21.3441 2.64052C19.8201 2.5024 17.8499 2.5 15 2.5C12.1501 2.5 10.1799 2.5024 8.65594 2.64052C7.16636 2.77552 6.35031 3.02424 5.75 3.37083C4.76188 3.94133 3.94133 4.76188 3.37083 5.75C3.02424 6.35031 2.77552 7.16636 2.64052 8.65594C2.5024 10.1799 2.5 12.1501 2.5 15V19C2.5 21.8499 2.5024 23.8201 2.64052 25.3441C2.77552 26.8336 3.02424 27.6497 3.37083 28.25C3.94133 29.2381 4.76188 30.0587 5.75 30.6292C6.35031 30.9758 7.16636 31.2245 8.65594 31.3595C10.1799 31.4976 12.1501 31.5 15 31.5C17.8499 31.5 19.8201 31.4976 21.3441 31.3595C22.8336 31.2245 23.6497 30.9758 24.25 30.6292C25.2381 30.0587 26.0587 29.2381 26.6292 28.25C26.9758 27.6497 27.2245 26.8336 27.3595 25.3441ZM1.20577 4.5C0 6.58846 0 9.39231 0 15V19C0 24.6077 0 27.4115 1.20577 29.5C1.99569 30.8682 3.13183 32.0043 4.5 32.7942C6.58846 34 9.39231 34 15 34C20.6077 34 23.4115 34 25.5 32.7942C26.8682 32.0043 28.0043 30.8682 28.7942 29.5C30 27.4115 30 24.6077 30 19V15C30 9.39231 30 6.58846 28.7942 4.5C28.0043 3.13183 26.8682 1.99569 25.5 1.20577C23.4115 0 20.6077 0 15 0C9.39231 0 6.58846 0 4.5 1.20577C3.13183 1.99569 1.99569 3.13183 1.20577 4.5ZM6 7C6 6.44772 6.44772 6 7 6H11C11.5523 6 12 6.44772 12 7V11C12 11.5523 11.5523 12 11 12H7C6.44772 12 6 11.5523 6 11V7ZM7.5 14C6.67157 14 6 14.6716 6 15.5C6 16.3284 6.67157 17 7.5 17H22.5C23.3284 17 24 16.3284 24 15.5C24 14.6716 23.3284 14 22.5 14H7.5ZM6 20.5C6 19.6716 6.67157 19 7.5 19H22.5C23.3284 19 24 19.6716 24 20.5C24 21.3284 23.3284 22 22.5 22H7.5C6.67157 22 6 21.3284 6 20.5ZM7.5 24C6.67157 24 6 24.6716 6 25.5C6 26.3284 6.67157 27 7.5 27H19.5C20.3284 27 21 26.3284 21 25.5C21 24.6716 20.3284 24 19.5 24H7.5Z" fill="#535873"/>
</svg>
