<svg width="30" height="34" viewBox="0 0 30 34" fill="none" xmlns="http://www.w3.org/2000/svg">
<path fill-rule="evenodd" clip-rule="evenodd" d="M25 3H5C3.89543 3 3 3.89543 3 5V29C3 30.1046 3.89543 31 5 31H25C26.1046 31 27 30.1046 27 29V5C27 3.89543 26.1046 3 25 3ZM5 0C2.23858 0 0 2.23858 0 5V29C0 31.7614 2.23858 34 5 34H25C27.7614 34 30 31.7614 30 29V5C30 2.23858 27.7614 0 25 0H5ZM6 8C6 7.44772 6.44772 7 7 7H10C10.5523 7 11 7.44772 11 8V11C11 11.5523 10.5523 12 10 12H7C6.44772 12 6 11.5523 6 11V8ZM7 14C6.44772 14 6 14.4477 6 15V16C6 16.5523 6.44772 17 7 17H23C23.5523 17 24 16.5523 24 16V15C24 14.4477 23.5523 14 23 14H7ZM6 20C6 19.4477 6.44772 19 7 19H23C23.5523 19 24 19.4477 24 20V21C24 21.5523 23.5523 22 23 22H7C6.44772 22 6 21.5523 6 21V20ZM7 24C6.44772 24 6 24.4477 6 25V26C6 26.5523 6.44772 27 7 27H20C20.5523 27 21 26.5523 21 26V25C21 24.4477 20.5523 24 20 24H7Z" fill="#635CDD"/>
</svg>
