<svg width="36" height="36" viewBox="0 0 36 36" fill="none" xmlns="http://www.w3.org/2000/svg">
<circle cx="18" cy="18" r="10" fill="#F9BB29"/>
<path d="M17.134 1.5C17.5189 0.833333 18.4811 0.833333 18.866 1.5L20.5981 4.5C20.983 5.16667 20.5019 6 19.7321 6H16.2679C15.4981 6 15.017 5.16667 15.4019 4.5L17.134 1.5Z" fill="#F9BB29"/>
<path d="M18.866 34.5C18.4811 35.1667 17.5189 35.1667 17.134 34.5L15.4019 31.5C15.017 30.8333 15.4981 30 16.2679 30L19.7321 30C20.5019 30 20.983 30.8333 20.5981 31.5L18.866 34.5Z" fill="#F9BB29"/>
<path d="M1.5 18.866C0.833332 18.4811 0.833333 17.5189 1.5 17.134L4.5 15.4019C5.16667 15.017 6 15.4981 6 16.2679L6 19.7321C6 20.5019 5.16667 20.983 4.5 20.5981L1.5 18.866Z" fill="#F9BB29"/>
<path d="M34.5 17.134C35.1667 17.5189 35.1667 18.4811 34.5 18.866L31.5 20.5981C30.8333 20.983 30 20.5019 30 19.7321L30 16.2679C30 15.4981 30.8333 15.017 31.5 15.4019L34.5 17.134Z" fill="#F9BB29"/>
<path d="M6.94464 30.2799C6.20107 30.4791 5.52066 29.7987 5.7199 29.0551L6.55243 25.9481C6.75167 25.2045 7.68113 24.9554 8.22546 25.4998L10.5 27.7743C11.0443 28.3186 10.7953 29.2481 10.0517 29.4473L6.94464 30.2799Z" fill="#F9BB29"/>
<path d="M29.0554 5.72013C29.7989 5.52089 30.4793 6.20131 30.2801 6.94488L29.4476 10.0519C29.2483 10.7955 28.3189 11.0446 27.7745 10.5002L25.5 8.2257C24.9557 7.68137 25.2047 6.75191 25.9483 6.55267L29.0554 5.72013Z" fill="#F9BB29"/>
<path d="M30.2794 29.0549C30.4786 29.7984 29.7982 30.4789 29.0546 30.2796L25.9476 29.4471C25.204 29.2478 24.955 28.3184 25.4993 27.774L27.7738 25.4995C28.3181 24.9552 29.2476 25.2042 29.4468 25.9478L30.2794 29.0549Z" fill="#F9BB29"/>
<path d="M5.72062 6.94513C5.52138 6.20156 6.2018 5.52115 6.94537 5.72039L10.0524 6.55292C10.796 6.75216 11.045 7.68162 10.5007 8.22595L8.22619 10.5005C7.68186 11.0448 6.7524 10.7958 6.55316 10.0522L5.72062 6.94513Z" fill="#F9BB29"/>
</svg>
